<?xml version="1.0" standalone="no"?>
<svg xmlns:xlink="http://www.w3.org/1999/xlink" id="wave"  viewBox="0 0 1440 380" version="1.1" xmlns="http://www.w3.org/2000/svg"><defs><linearGradient id="sw-gradient-0" x1="0" x2="0" y1="1" y2="0"><stop stop-color="rgba(102, 252, 241, 1)" offset="0%"/><stop stop-color="rgba(31, 40, 51, 1)" offset="100%"/></linearGradient></defs><path style="transform:translate(0, 0px); opacity:1" fill="url(#sw-gradient-0)" d="M0,76L48,76C96,76,192,76,288,82.3C384,89,480,101,576,95C672,89,768,63,864,69.7C960,76,1056,114,1152,133C1248,152,1344,152,1440,183.7C1536,215,1632,279,1728,266C1824,253,1920,165,2016,114C2112,63,2208,51,2304,95C2400,139,2496,241,2592,266C2688,291,2784,241,2880,183.7C2976,127,3072,63,3168,76C3264,89,3360,177,3456,196.3C3552,215,3648,165,3744,152C3840,139,3936,165,4032,164.7C4128,165,4224,139,4320,152C4416,165,4512,215,4608,215.3C4704,215,4800,165,4896,139.3C4992,114,5088,114,5184,139.3C5280,165,5376,215,5472,240.7C5568,266,5664,266,5760,272.3C5856,279,5952,291,6048,259.7C6144,228,6240,152,6336,152C6432,152,6528,228,6624,259.7C6720,291,6816,279,6864,272.3L6912,266L6912,380L6864,380C6816,380,6720,380,6624,380C6528,380,6432,380,6336,380C6240,380,6144,380,6048,380C5952,380,5856,380,5760,380C5664,380,5568,380,5472,380C5376,380,5280,380,5184,380C5088,380,4992,380,4896,380C4800,380,4704,380,4608,380C4512,380,4416,380,4320,380C4224,380,4128,380,4032,380C3936,380,3840,380,3744,380C3648,380,3552,380,3456,380C3360,380,3264,380,3168,380C3072,380,2976,380,2880,380C2784,380,2688,380,2592,380C2496,380,2400,380,2304,380C2208,380,2112,380,2016,380C1920,380,1824,380,1728,380C1632,380,1536,380,1440,380C1344,380,1248,380,1152,380C1056,380,960,380,864,380C768,380,672,380,576,380C480,380,384,380,288,380C192,380,96,380,48,380L0,380Z"/><defs><linearGradient id="sw-gradient-1" x1="0" x2="0" y1="1" y2="0"><stop stop-color="rgba(197, 198, 199, 1)" offset="0%"/><stop stop-color="rgba(197, 198, 199, 1)" offset="100%"/></linearGradient></defs><path style="transform:translate(0, 50px); opacity:0.9" fill="url(#sw-gradient-1)" d="M0,152L48,158.3C96,165,192,177,288,152C384,127,480,63,576,88.7C672,114,768,228,864,240.7C960,253,1056,165,1152,145.7C1248,127,1344,177,1440,164.7C1536,152,1632,76,1728,76C1824,76,1920,152,2016,177.3C2112,203,2208,177,2304,164.7C2400,152,2496,152,2592,152C2688,152,2784,152,2880,145.7C2976,139,3072,127,3168,133C3264,139,3360,165,3456,171C3552,177,3648,165,3744,133C3840,101,3936,51,4032,76C4128,101,4224,203,4320,259.7C4416,317,4512,329,4608,316.7C4704,304,4800,266,4896,259.7C4992,253,5088,279,5184,253.3C5280,228,5376,152,5472,114C5568,76,5664,76,5760,63.3C5856,51,5952,25,6048,19C6144,13,6240,25,6336,50.7C6432,76,6528,114,6624,114C6720,114,6816,76,6864,57L6912,38L6912,380L6864,380C6816,380,6720,380,6624,380C6528,380,6432,380,6336,380C6240,380,6144,380,6048,380C5952,380,5856,380,5760,380C5664,380,5568,380,5472,380C5376,380,5280,380,5184,380C5088,380,4992,380,4896,380C4800,380,4704,380,4608,380C4512,380,4416,380,4320,380C4224,380,4128,380,4032,380C3936,380,3840,380,3744,380C3648,380,3552,380,3456,380C3360,380,3264,380,3168,380C3072,380,2976,380,2880,380C2784,380,2688,380,2592,380C2496,380,2400,380,2304,380C2208,380,2112,380,2016,380C1920,380,1824,380,1728,380C1632,380,1536,380,1440,380C1344,380,1248,380,1152,380C1056,380,960,380,864,380C768,380,672,380,576,380C480,380,384,380,288,380C192,380,96,380,48,380L0,380Z"/></svg>